<svg xmlns="http://www.w3.org/2000/svg" version="1.1" xmlns:xlink="http://www.w3.org/1999/xlink" width="512" height="512" x="0" y="0" viewBox="0 0 32 32" style="enable-background:new 0 0 512 512" xml:space="preserve" fill-rule="evenodd" class=""><g><path d="M16 2c-3.863 0-7 3.137-7 7s3.137 7 7 7 7-3.137 7-7-3.137-7-7-7zm0 2c2.76 0 5 2.24 5 5s-2.24 5-5 5-5-2.24-5-5 2.24-5 5-5zM4 28h12a1 1 0 0 1 0 2H3a1 1 0 0 1-1-1v-2a9 9 0 0 1 9-9h5a1 1 0 0 1 0 2h-5a7 7 0 0 0-7 7zM24.501 18c-3.587 0-6.499 2.912-6.499 6.499s2.912 6.499 6.499 6.499S31 28.086 31 24.499 28.088 18 24.501 18zm0 2C26.984 20 29 22.016 29 24.499s-2.016 4.499-4.499 4.499-4.499-2.016-4.499-4.499S22.018 20 24.501 20z" fill="#000000" opacity="1" data-original="#000000"></path><path d="m24.085 24.564 2.199-2.261a1 1 0 1 1 1.434 1.394l-2.916 2.998a.998.998 0 0 1-1.434 0l-2.084-2.143a1 1 0 1 1 1.434-1.394z" fill="#000000" opacity="1" data-original="#000000"></path></g></svg>