<svg xmlns="http://www.w3.org/2000/svg" version="1.1" xmlns:xlink="http://www.w3.org/1999/xlink" width="512" height="512" x="0" y="0" viewBox="0 0 32 32" style="enable-background:new 0 0 512 512" xml:space="preserve" fill-rule="evenodd"><g><path d="M14.806 18.022c-5.312 0-9.748 3.781-10.789 8.794A1 1 0 0 0 5 28h15.894a1 1 0 0 1 0 2H5.001a2.999 2.999 0 0 1-2.943-3.586 13.084 13.084 0 0 1 8.431-9.655 8.009 8.009 0 0 1-3.694-6.748A8.015 8.015 0 0 1 14.806 2c3.623 0 6.687 2.41 7.676 5.713.218.728.335 1.5.335 2.298a7.997 7.997 0 0 1-3.693 6.748c.798.282 1.561.64 2.279 1.065a1 1 0 0 1-1.018 1.721 10.927 10.927 0 0 0-5.579-1.523zm0-2a6.017 6.017 0 0 0 5.608-3.842 5.984 5.984 0 0 0 .403-2.169c0-.599-.087-1.178-.251-1.724A6.017 6.017 0 0 0 14.806 4a6.014 6.014 0 0 0-6.011 6.011 6.013 6.013 0 0 0 6.011 6.011zM24 25h-3a1 1 0 0 1 0-2h3v-3a1 1 0 0 1 2 0v3h3a1 1 0 0 1 0 2h-3v3a1 1 0 0 1-2 0z" fill="#000000" opacity="1" data-original="#000000"></path></g></svg>