<svg xmlns="http://www.w3.org/2000/svg" version="1.1" xmlns:xlink="http://www.w3.org/1999/xlink" width="512" height="512" x="0" y="0" viewBox="0 0 512 512" style="enable-background:new 0 0 512 512" xml:space="preserve" class=""><g><circle cx="256" cy="257.77" r="245" fill="#8379c1" opacity="1" data-original="#8379c1"></circle><path fill="#6e61b6" d="M432.9 305.56a183.426 183.426 0 0 0 6.31-47.79c0-101.184-82.026-183.21-183.21-183.21S72.79 156.585 72.79 257.77c0 16.535 2.203 32.553 6.31 47.79z" opacity="1" data-original="#6e61b6"></path><g fill="#fac600"><path d="M191.564 123.584c-27.474-6.28-48.041-30.901-48.041-60.25V47.56h35.916v-16H168c-2.206 0-4-1.794-4-4h-24.645c-8.73 0-15.832 7.103-15.832 15.832v19.942c0 45.114 36.703 81.817 81.818 81.817h.28a113.793 113.793 0 0 1-14.057-21.567zM372.645 27.56H348c0 2.206-1.794 4-4 4h-11.438v16h35.916v15.774c0 29.35-20.567 53.97-48.041 60.25a113.793 113.793 0 0 1-14.057 21.567h.28c45.115 0 81.818-36.703 81.818-81.817V43.392c-.001-8.73-7.103-15.832-15.833-15.832z" fill="#fac600" opacity="1" data-original="#fac600"></path></g><path fill="#fac600" d="M271.164 204.56v-30.935a116.174 116.174 0 0 1-9.828 4.585c-1.702.696-3.497 1.05-5.336 1.05s-3.634-.354-5.336-1.05a116.174 116.174 0 0 1-9.828-4.585v30.935z" opacity="1" data-original="#fac600"></path><path fill="#fee45a" d="M178.439 31.56v40.608c0 48.347 29.703 89.733 71.847 106.969a15.095 15.095 0 0 0 11.429 0c42.144-17.236 71.847-58.622 71.847-106.969V31.56z" opacity="1" data-original="#fee45a"></path><path fill="#fedf30" d="M200.658 72.167V31.56h-22.219v40.608c0 48.347 29.703 89.733 71.847 106.969a15.095 15.095 0 0 0 11.429 0 113.06 113.06 0 0 0 5.409-2.384c-39.264-18.457-66.466-58.327-66.466-104.586z" opacity="1" data-original="#fedf30"></path><path fill="#fedf30" d="M344 32.56H168a5 5 0 0 1-5-5V14.231a5 5 0 0 1 5-5h176a5 5 0 0 1 5 5V27.56a5 5 0 0 1-5 5z" opacity="1" data-original="#fedf30"></path><path fill="#fed402" d="M203 27.56V14.23a5 5 0 0 1 5-5h-40a5 5 0 0 0-5 5v13.33a5 5 0 0 0 5 5h40a5 5 0 0 1-5-5z" opacity="1" data-original="#fed402"></path><path fill="#fedf30" d="M311 278.56v-65c0-5.523-4.477-10-10-10h-90c-5.523 0-10 4.477-10 10v65z" opacity="1" data-original="#fedf30"></path><path fill="#fed402" d="M233 278.56v-65c0-5.523 4.477-10 10-10h-32c-5.523 0-10 4.477-10 10v65z" opacity="1" data-original="#fed402"></path><path fill="#fed402" d="M330 305.56v-18c0-5.523-4.477-10-10-10H192c-5.523 0-10 4.477-10 10v18z" opacity="1" data-original="#fed402"></path><path fill="#fac600" d="M222 305.56v-18c0-5.523 4.477-10 10-10h-40c-5.523 0-10 4.477-10 10v18z" opacity="1" data-original="#fac600"></path><path fill="#fe5694" d="M487 430.553H25c-13.807 0-25-11.193-25-25V329.56c0-13.807 11.193-25 25-25h462c13.807 0 25 11.193 25 25v75.994c0 13.806-11.193 24.999-25 24.999z" opacity="1" data-original="#fe5694"></path><path fill="#fd3581" d="M56 405.553V329.56c0-13.807 11.193-25 25-25H25c-13.807 0-25 11.193-25 25v75.994c0 13.807 11.193 25 25 25h56c-13.807-.001-25-11.194-25-25.001z" opacity="1" data-original="#fd3581"></path><g fill="#fff"><path d="M56.177 340.911h18.288a6.5 6.5 0 1 0 0-13H56.177c-14.709 0-26.677 11.967-26.677 26.677v25.938c0 14.71 11.967 26.677 26.677 26.677h18.288a6.5 6.5 0 1 0 0-13H56.177c-7.542 0-13.677-6.136-13.677-13.677v-25.938c0-7.541 6.135-13.677 13.677-13.677zM191.747 327.911a6.5 6.5 0 0 0-6.5 6.5v42.138l-26.342-45.399a6.501 6.501 0 0 0-12.122 3.261v66.291a6.5 6.5 0 1 0 13 0v-42.137l26.342 45.398a6.496 6.496 0 0 0 12.117-3.262h.005V334.41a6.5 6.5 0 0 0-6.5-6.499zM349.434 327.911h-5.77c-12.598 0-22.848 10.249-22.848 22.847v49.944a6.5 6.5 0 1 0 13 0v-15.881h25.465v15.881a6.5 6.5 0 1 0 13 0v-49.944c.001-12.598-10.249-22.847-22.847-22.847zm9.848 43.91h-25.465v-21.063c0-5.43 4.417-9.847 9.848-9.847h5.77c5.43 0 9.848 4.417 9.848 9.847v21.063zM116.707 327.911h-5.667c-12.626 0-22.898 10.271-22.898 22.897v33.495c0 12.626 10.272 22.898 22.898 22.898h5.667c12.626 0 22.898-10.272 22.898-22.898v-33.495c0-12.625-10.272-22.897-22.898-22.897zm9.898 56.393c0 5.458-4.44 9.898-9.898 9.898h-5.667c-5.458 0-9.898-4.44-9.898-9.898v-33.495c0-5.457 4.44-9.897 9.898-9.897h5.667c5.458 0 9.898 4.44 9.898 9.897zM223.759 340.911h25.685a6.5 6.5 0 1 0 0-13h-25.685c-10.631 0-19.28 8.648-19.28 19.279v40.731c0 10.631 8.649 19.28 19.28 19.28h12.905c10.631 0 19.28-8.649 19.28-19.28v-22.915a6.5 6.5 0 0 0-6.5-6.5h-16.318a6.5 6.5 0 1 0 0 13h9.818v16.415a6.287 6.287 0 0 1-6.28 6.28h-12.905a6.287 6.287 0 0 1-6.28-6.28V347.19a6.287 6.287 0 0 1 6.28-6.279zM297.996 327.911H269.62a6.5 6.5 0 0 0-6.5 6.5v66.291a6.5 6.5 0 1 0 13 0v-26.646h7.219l19.269 30.146a6.497 6.497 0 0 0 8.977 1.976 6.5 6.5 0 0 0 1.977-8.978l-14.817-23.183c8.799-.395 15.84-7.656 15.84-16.551v-12.969c-.001-9.144-7.442-16.586-16.589-16.586zm3.588 29.557a3.593 3.593 0 0 1-3.588 3.589H276.12v-20.146h21.876a3.591 3.591 0 0 1 3.588 3.588zM463.762 361.057h-13.988a5.744 5.744 0 0 1-5.738-5.738v-8.669a5.744 5.744 0 0 1 5.738-5.738h24.271a6.5 6.5 0 1 0 0-13h-24.271c-10.333 0-18.738 8.406-18.738 18.738v8.669c0 10.332 8.406 18.738 18.738 18.738h13.988a5.744 5.744 0 0 1 5.738 5.738v8.669a5.744 5.744 0 0 1-5.738 5.738h-24.27a6.5 6.5 0 1 0 0 13h24.27c10.333 0 18.738-8.406 18.738-18.738v-8.669c0-10.332-8.406-18.738-18.738-18.738zM421.211 327.911h-40.353a6.5 6.5 0 1 0 0 13h13.677v59.791a6.5 6.5 0 1 0 13 0v-59.791h13.676a6.5 6.5 0 1 0 0-13z" fill="#ffffff" opacity="1" data-original="#ffffff"></path></g><path fill="#05e39c" d="m412.534 118.138 12.488 25.303a5.001 5.001 0 0 0 3.766 2.736l27.924 4.058c4.103.596 5.741 5.638 2.772 8.532l-20.206 19.696a5.002 5.002 0 0 0-1.439 4.427l4.77 27.811c.701 4.086-3.588 7.202-7.258 5.273l-24.976-13.131a5.002 5.002 0 0 0-4.655 0l-24.976 13.131c-3.67 1.929-7.958-1.187-7.258-5.273l4.77-27.811a5.002 5.002 0 0 0-1.439-4.427l-20.206-19.696c-2.969-2.894-1.331-7.936 2.772-8.532l27.924-4.058a5.002 5.002 0 0 0 3.766-2.736l12.488-25.303c1.837-3.718 7.138-3.718 8.973 0z" opacity="1" data-original="#05e39c"></path><path fill="#0ed290" d="m401.429 201.194 4.77-27.811a4.999 4.999 0 0 0-1.439-4.427l-20.206-19.696a4.936 4.936 0 0 1-1.397-2.479l-23.772 3.454c-4.103.596-5.741 5.638-2.772 8.532l20.206 19.696a5 5 0 0 1 1.438 4.428l-4.77 27.811c-.701 4.086 3.588 7.202 7.258 5.273l21.395-11.248a4.908 4.908 0 0 1-.711-3.533z" opacity="1" data-original="#0ed290"></path><path fill="#fea613" d="m142.835 198.471 9.061 18.359a3.629 3.629 0 0 0 2.733 1.985l20.26 2.944c2.977.433 4.165 4.091 2.011 6.19l-14.661 14.291a3.63 3.63 0 0 0-1.044 3.212l3.461 20.179c.508 2.965-2.603 5.226-5.266 3.826l-18.121-9.527a3.629 3.629 0 0 0-3.378 0l-18.121 9.527c-2.663 1.4-5.774-.861-5.266-3.826l3.461-20.179a3.626 3.626 0 0 0-1.044-3.212l-14.661-14.291c-2.154-2.1-.965-5.758 2.011-6.19l20.26-2.944a3.631 3.631 0 0 0 2.733-1.985l9.061-18.359c1.332-2.698 5.179-2.698 6.51 0z" opacity="1" data-original="#fea613"></path><path fill="#fe9901" d="m134.778 258.733 3.461-20.179a3.627 3.627 0 0 0-1.044-3.212l-14.661-14.291a3.588 3.588 0 0 1-1.014-1.799l-17.248 2.506c-2.977.433-4.165 4.091-2.011 6.19l14.661 14.29a3.631 3.631 0 0 1 1.044 3.213l-3.461 20.178c-.508 2.965 2.603 5.226 5.266 3.826l15.523-8.161a3.55 3.55 0 0 1-.516-2.561z" opacity="1" data-original="#fe9901"></path><path fill="#fe5694" d="m75.942 48.366 9.033 18.303a3.617 3.617 0 0 0 2.724 1.979l20.199 2.935c2.968.431 4.153 4.078 2.005 6.171L95.288 92.002a3.619 3.619 0 0 0-1.041 3.203l3.45 20.117c.507 2.956-2.595 5.21-5.25 3.814l-18.066-9.498a3.618 3.618 0 0 0-3.367 0l-18.066 9.498c-2.654 1.395-5.757-.858-5.25-3.814l3.45-20.117a3.62 3.62 0 0 0-1.041-3.203L35.492 77.755c-2.147-2.093-.962-5.74 2.005-6.171l20.199-2.935a3.617 3.617 0 0 0 2.724-1.979l9.033-18.303c1.327-2.69 5.162-2.69 6.489-.001z" opacity="1" data-original="#fe5694"></path><path fill="#fd3581" d="m67.91 108.445 3.45-20.117a3.617 3.617 0 0 0-1.041-3.202L55.703 70.878a3.576 3.576 0 0 1-1.011-1.793l-17.195 2.499c-2.968.431-4.153 4.078-2.005 6.171l14.616 14.247a3.616 3.616 0 0 1 1.04 3.203l-3.45 20.117c-.507 2.956 2.596 5.21 5.25 3.814L68.424 111a3.546 3.546 0 0 1-.514-2.555z" opacity="1" data-original="#fd3581"></path><circle cx="256" cy="91.06" r="37.5" fill="#fed402" opacity="1" data-original="#fed402"></circle><path fill="#fac600" d="M243 91.06c0-16.419 10.557-30.364 25.25-35.442A37.432 37.432 0 0 0 256 53.56c-20.711 0-37.5 16.789-37.5 37.5s16.789 37.5 37.5 37.5c4.291 0 8.41-.73 12.25-2.058C253.557 121.424 243 107.479 243 91.06z" opacity="1" data-original="#fac600"></path><path fill="#ffffff" d="M285.5 259.56h-59a5 5 0 0 1-5-5v-27a5 5 0 0 1 5-5h59a5 5 0 0 1 5 5v27a5 5 0 0 1-5 5z" opacity="1" data-original="#ffffff"></path><path fill="#eaf6ff" d="M246 254.56v-27a5 5 0 0 1 5-5h-24.5a5 5 0 0 0-5 5v27a5 5 0 0 0 5 5H251a5 5 0 0 1-5-5z" opacity="1" data-original="#eaf6ff"></path><path fill="#ffffff" d="M97.014 176.524c-11.146 4.055-15.994 8.903-20.049 20.049-.963 2.648-4.685 2.648-5.649 0-4.055-11.146-8.903-15.994-20.049-20.049-2.648-.963-2.648-4.685 0-5.649 11.146-4.055 15.994-8.903 20.049-20.049.963-2.648 4.685-2.648 5.649 0 4.055 11.146 8.903 15.994 20.049 20.049 2.648.964 2.648 4.686 0 5.649z" opacity="1" data-original="#ffffff"></path><path fill="#eaf6ff" d="M80.035 188.293c-4.055-11.146-8.903-15.994-20.049-20.049a3.03 3.03 0 0 1-1.209-.795c-2.144 1.26-4.61 2.372-7.51 3.427-2.648.963-2.648 4.685 0 5.648 11.146 4.055 15.994 8.903 20.049 20.049.964 2.648 4.685 2.648 5.649 0 1.063-2.921 2.184-5.401 3.455-7.556a3.099 3.099 0 0 1-.385-.724z" opacity="1" data-original="#eaf6ff"></path><path fill="#fee45a" d="M452.014 81.244c-11.146 4.055-15.994 8.903-20.049 20.049-.964 2.648-4.685 2.648-5.649 0-4.055-11.146-8.903-15.994-20.049-20.049-2.648-.963-2.648-4.685 0-5.649 11.146-4.055 15.994-8.903 20.049-20.049.963-2.648 4.685-2.648 5.649 0 4.055 11.146 8.903 15.994 20.049 20.049 2.648.964 2.648 4.685 0 5.649z" opacity="1" data-original="#fee45a"></path><path fill="#fed402" d="M435.035 93.013c-4.055-11.146-8.903-15.994-20.049-20.049a3.03 3.03 0 0 1-1.209-.795c-2.144 1.26-4.61 2.372-7.51 3.427-2.648.963-2.648 4.685 0 5.648 11.146 4.055 15.994 8.903 20.049 20.049.964 2.648 4.685 2.648 5.649 0 1.063-2.921 2.184-5.401 3.455-7.556a3.099 3.099 0 0 1-.385-.724z" opacity="1" data-original="#fed402"></path><path fill="#ffffff" d="M403.733 264.244c-11.146 4.055-15.994 8.903-20.049 20.049-.963 2.648-4.685 2.648-5.649 0-4.055-11.146-8.903-15.994-20.049-20.049-2.648-.964-2.648-4.685 0-5.649 11.146-4.055 15.994-8.903 20.049-20.049.964-2.648 4.685-2.648 5.649 0 4.055 11.146 8.903 15.994 20.049 20.049 2.649.964 2.649 4.685 0 5.649z" opacity="1" data-original="#ffffff"></path><path fill="#eaf6ff" d="M386.755 276.013c-4.055-11.146-8.903-15.994-20.049-20.049a3.03 3.03 0 0 1-1.209-.795c-2.144 1.26-4.61 2.372-7.51 3.427-2.648.963-2.648 4.685 0 5.648 11.146 4.055 15.994 8.903 20.049 20.049.964 2.648 4.685 2.648 5.649 0 1.063-2.921 2.184-5.401 3.455-7.556a3.099 3.099 0 0 1-.385-.724z" opacity="1" data-original="#eaf6ff"></path></g></svg>