<svg xmlns="http://www.w3.org/2000/svg" version="1.1" xmlns:xlink="http://www.w3.org/1999/xlink" width="512" height="512" x="0" y="0" viewBox="0 0 512.018 512.018" style="enable-background:new 0 0 512 512" xml:space="preserve" class=""><g><path d="M109.53 179.232H65.401c-5.523 0-10 4.477-10 10v44.129c0 5.523 4.477 10 10 10h44.129c5.523 0 10-4.477 10-10v-44.129c0-5.523-4.477-10-10-10zm-10 44.13H75.401v-24.129H99.53zM109.53 277.046H65.401c-5.523 0-10 4.477-10 10v44.129c0 5.523 4.477 10 10 10h44.129c5.523 0 10-4.477 10-10v-44.129c0-5.523-4.477-10-10-10zm-10 44.129H75.401v-24.129H99.53zM196.381 243.362c5.523 0 10-4.477 10-10v-44.129c0-5.523-4.477-10-10-10h-44.129c-5.523 0-10 4.477-10 10v44.129c0 5.523 4.477 10 10 10zm-34.13-44.13h24.129v24.129h-24.129zM239.102 243.362h44.129c5.522 0 10-4.477 10-10v-44.129c0-5.523-4.478-10-10-10h-44.129c-5.523 0-10 4.477-10 10v44.129c0 5.523 4.477 10 10 10zm10-44.13h24.129v24.129h-24.129zM293.231 331.175v-44.129c0-5.523-4.478-10-10-10h-44.129c-5.523 0-10 4.477-10 10v44.129c0 5.523 4.477 10 10 10h44.129c5.523 0 10-4.477 10-10zm-20-10h-24.129v-24.129h24.129zM325.953 243.362h44.129c5.522 0 10-4.477 10-10v-44.129c0-5.523-4.478-10-10-10h-44.129c-5.522 0-10 4.477-10 10v44.129c0 5.523 4.478 10 10 10zm10-44.13h24.129v24.129h-24.129z" fill="#000000" opacity="1" data-original="#000000" class=""></path><path d="m507.423 461.152-1.232-2.134c-2.763-4.782-8.878-6.422-13.661-3.658-4.782 2.762-6.42 8.878-3.657 13.661l1.231 2.132c5.266 9.125-1.538 20.838-12.031 20.838H266.966c-10.494 0-17.295-11.719-12.031-20.838L360.488 288.33c2.512-4.349 7.009-6.946 12.031-6.946s9.52 2.597 12.03 6.946l60.449 104.702c2.762 4.783 8.875 6.423 13.66 3.66 4.783-2.761 6.422-8.877 3.66-13.66l-24.979-43.266V51.294c0-5.523-4.478-10-10-10h-57.044v-8.373c0-18.138-14.756-32.894-32.894-32.894s-32.895 14.756-32.895 32.894v8.373h-54.029v-8.373c0-18.138-14.756-32.894-32.894-32.894S184.69 14.783 184.69 32.921v8.373h-54.029v-8.373c0-18.138-14.756-32.894-32.895-32.894-18.138 0-32.894 14.756-32.894 32.894v8.373H10c-5.523 0-10 4.477-10 10v344.465c0 5.523 4.477 10 10 10h259.597l-31.982 55.395c-12.851 22.259 3.75 50.838 29.351 50.838h211.106c12.252 0 23.225-6.334 29.351-16.945 6.127-10.612 6.127-23.282 0-33.895zM324.508 32.921c0-7.11 5.784-12.894 12.895-12.894 7.109 0 12.894 5.784 12.894 12.894l-.001 37.162c0 7.005-5.884 12.898-12.893 12.898-7.02 0-12.895-5.88-12.895-12.898zm-119.818 0c0-7.11 5.784-12.894 12.894-12.894s12.894 5.784 12.894 12.894v37.166c0 7.11-5.784 12.894-12.894 12.894s-12.894-5.784-12.894-12.894zM97.768 20.027c7.11 0 12.894 5.784 12.894 12.894v37.166c0 7.017-5.878 12.894-12.895 12.894-7.012 0-12.892-5.9-12.892-12.898V51.294l-.002-18.373c0-7.11 5.785-12.894 12.895-12.894zM20 145.548h30.551c5.523 0 10-4.477 10-10s-4.477-10-10-10H20V61.294h44.873v8.792c0 17.889 14.98 32.895 32.891 32.895 17.912 0 32.898-14.987 32.898-32.898v-8.789h54.025v8.789c0 18.14 14.758 32.898 32.898 32.898s32.898-14.758 32.898-32.898v-8.789h54.024v8.789c.026 13.318 8.328 25.599 20.702 30.555a32.869 32.869 0 0 0 12.197 2.343c17.907 0 32.89-14.996 32.89-32.895v-8.792h47.044v64.254H141.748c-5.523 0-10 4.477-10 10s4.477 10 10 10H417.34v159.571l-15.468-26.793c-6.127-10.61-17.101-16.945-29.352-16.945h-.001c-12.252 0-23.226 6.335-29.354 16.946l-62.028 107.432H20z" fill="#000000" opacity="1" data-original="#000000" class=""></path><path d="m196.999 285.284-25.271 27.665-8.921-9.078c-3.87-3.939-10.202-3.994-14.142-.123-3.939 3.871-3.994 10.202-.123 14.142l16.318 16.605a10 10 0 0 0 7.132 2.991l.183-.001a10 10 0 0 0 7.201-3.254l32.389-35.457c3.725-4.078 3.439-10.403-.639-14.128-4.077-3.725-10.402-3.439-14.127.638zM95.49 145.549c4.316 0 8.23-2.891 9.531-6.994 1.33-4.194-.327-8.874-3.981-11.316-7.321-4.893-17.241 1.868-15.309 10.476 1.013 4.512 5.125 7.834 9.759 7.834zM383.52 343.521c0-5.523-4.478-10-10-10s-10 4.477-10 10v79.517c0 5.523 4.478 10 10 10s10-4.477 10-10zM381.83 451.979c-2.987-4.558-9.352-5.776-13.86-2.77-4.534 3.023-5.774 9.336-2.77 13.87 3.014 4.55 9.346 5.761 13.869 2.76 4.542-3.013 5.771-9.337 2.761-13.86zM485.685 422.954c-2.987-4.558-9.352-5.776-13.86-2.77-4.534 3.023-5.774 9.336-2.77 13.87 3.014 4.55 9.346 5.761 13.869 2.76 4.542-3.013 5.771-9.337 2.761-13.86z" fill="#000000" opacity="1" data-original="#000000" class=""></path></g></svg>