<svg xmlns="http://www.w3.org/2000/svg" version="1.1" xmlns:xlink="http://www.w3.org/1999/xlink" width="512" height="512" x="0" y="0" viewBox="0 0 16.933 16.933" style="enable-background:new 0 0 512 512" xml:space="preserve" class=""><g><path fill-rule="evenodd" d="M7.42.53c-.602 0-1.152.344-1.42.88l-.622 1.24H3.181c-.872 0-1.59.719-1.59 1.59V5.3c0 .705.47 1.31 1.111 1.515l1.023 8.241a1.584 1.584 0 0 0 1.574 1.374h6.362c.786 0 1.476-.58 1.575-1.374l1.022-8.24a1.602 1.602 0 0 0 1.112-1.516V4.241c0-.872-.719-1.59-1.59-1.59h-2.198L10.96 1.41A1.593 1.593 0 0 0 9.54.53zm0 1.06h2.12c.2 0 .382.112.473.294l.383.767H6.564l.383-.767a.527.527 0 0 1 .473-.294zM3.181 3.71h10.598c.303 0 .53.228.53.53V5.3c0 .303-.227.53-.53.53H7.42a.53.53 0 1 0 0 1.06h5.76l-.996 8.036a.518.518 0 0 1-.523.444H5.299a.518.518 0 0 1-.522-.444L3.78 6.889h.459a.53.53 0 1 0 0-1.06H3.181a.518.518 0 0 1-.53-.53V4.241c0-.303.227-.53.53-.53zm4.231 5.292a.53.53 0 0 0-.523.538v3.181a.53.53 0 1 0 1.061 0V9.54a.53.53 0 0 0-.538-.538zm2.12 0a.53.53 0 0 0-.521.538v3.181a.53.53 0 1 0 1.06 0V9.54a.53.53 0 0 0-.538-.538z" paint-order="stroke fill markers" fill="#000000" opacity="1" data-original="#000000" class=""></path></g></svg>