<svg xmlns="http://www.w3.org/2000/svg" version="1.1" xmlns:xlink="http://www.w3.org/1999/xlink" width="512" height="512" x="0" y="0" viewBox="0 0 24 24" style="enable-background:new 0 0 512 512" xml:space="preserve" class=""><g><path d="M11.9 18c-.3 0-.5-.1-.7-.3l-4.9-5c-.4-.4-.4-1 0-1.4s1-.4 1.4 0l4.2 4.2 9.9-9.9c.4-.4 1-.4 1.4 0s.4 1 0 1.4L12.7 17.7c-.2.1-.5.3-.8.3z" fill="#000000" opacity="1" data-original="#000000"></path><path d="M7 18c-.3 0-.5-.1-.7-.3l-4.9-4.9c-.4-.4-.4-1 0-1.4s1-.4 1.4 0l4.9 4.9c.4.4.4 1 0 1.4-.2.2-.4.3-.7.3zm5.3-5.3c-.3 0-.5-.1-.7-.3-.4-.4-.4-1 0-1.4l5.3-5.3c.4-.4 1-.4 1.4 0s.4 1 0 1.4L13 12.4c-.2.2-.4.3-.7.3z" fill="#000000" opacity="1" data-original="#000000"></path></g></svg>