<svg xmlns="http://www.w3.org/2000/svg" version="1.1" xmlns:xlink="http://www.w3.org/1999/xlink" width="512" height="512" x="0" y="0" viewBox="0 0 500 500" style="enable-background:new 0 0 512 512" xml:space="preserve"><g><g fill-rule="evenodd" clip-rule="evenodd"><path fill="#9bc9ff" d="M132.913 174.985c10.768-5.717 18.653-13.54 23.049-24.896 3.046-7.867 4.043-14.705 9.744-21.723 9.09-11.19 30.487-18.642 43.825-22.661 28.231-8.506 59.879-10.376 89.105-6.931 45.839 5.403 73.065 39.216 75.286 83.595.835 16.69-2.061 33.622-8.218 49.148-12.515 31.557-42.895 62.315-74.897 73.963-34.963 12.725-79.149 6.337-113.965-4.22-33.817-10.254-54.58-18.469-73.318-50.846-8.666-14.973-18.67-35.293-8.816-52.001 6.339-10.748 19.122-15.625 30.113-20.053zm1.601 76.868 28.004 33.313c2.227 2.649 6.475 2.043 7.883-1.115l16.578-37.184 30.473 25.588c2.643 2.219 6.733.906 7.575-2.444l9.004-35.823 30.714 23.988c2.723 2.126 6.755.664 7.479-2.716l9.202-42.977 22.293-9.11c2.382-.99 3.526-3.749 2.536-6.133a4.704 4.704 0 0 0-6.134-2.535c-52.128 21.652-107.004 42.426-163.594 48.132-3.744.378-5.531 4.833-3.119 7.679l1.123 1.325zm101.441-97.901-2.455-2.41c8.086-5.725 13.843-9.286 23.823-11.223a4.695 4.695 0 0 0 3.719-5.501 4.7 4.7 0 0 0-5.498-3.718c-19.782 3.814-27.837 14.633-44.028 24.144-4.584 2.692-9.317 4.961-14.224 6.998-4.732 1.964-3.292 9.031 1.799 9.031 2.165 0 9.771-3.997 12.414-5.315l.088 2.657c.309 9.291 5.508 21.823 15.03 24.12 3.299.796 6.832.114 9.586-1.871 9.612-6.924 8.824-26.891-.254-36.912zm46.105 163.96-1.919.471c2.441 5.992 4.117 10.658 5.835 16.987a12.559 12.559 0 0 1-6.132 14.371l-16.524 9.012c-5.754 3.138-.977 11.889 4.773 8.756l9.066-4.94c5.698-3.105 12.497 1.807 11.322 8.193-1.844 10.025-6.268 19.017-12.853 26.794-19.013 22.456-41.25 22.463-60.261 0-6.582-7.777-11.014-16.769-12.853-26.794-1.172-6.388 5.619-11.305 11.321-8.194l9.055 4.94c3.534 1.928 7.448-.82 7.382-4.615-.031-1.804-1.031-3.286-2.598-4.141l-16.529-9.012c-5.151-2.808-7.658-8.712-6.127-14.372 1.655-6.113 3.336-10.758 5.638-16.558-9.668-1.671-17.192-3.301-26.696-5.767-1.623 9.051-2.336 16.158-2.45 25.408-.299 24.345 1.793 59.766 21.275 77.272a16.81 16.81 0 0 1 4.046 19.623l-3.548 7.689c-1.135 2.459-.023 5.479 2.435 6.616 2.463 1.139 5.481.023 6.618-2.439l6.488-14.047c2.062-4.464 6.535-7.037 11.43-6.567 9.316.894 21.174.899 30.49 0 4.893-.472 9.369 2.106 11.429 6.567l6.488 14.047c1.138 2.463 4.146 3.571 6.613 2.441 2.468-1.131 3.579-4.158 2.439-6.621l-3.559-7.689c-3.124-6.749-1.484-14.654 4.046-19.621 19.492-17.506 21.582-52.923 21.28-77.273-.133-10.773-1.079-18.971-3.298-29.439-8.484 4.104-14.863 6.631-24.122 8.902zm102.005 29.284c4.977-2.636 9.608-4.128 14.847-6.021-9.507 10.047-15.018 15.65-21.747 28.309-5.5 10.348-11.911 26.859-19.831 34.531-12.702 12.306-34.385 12.524-49.776 4.885l-1.567-.778c5.433-10.297 7.614-17.77 9.9-29.086 4.096 1.411 6.929 2.276 11.462 2.429 27.523.93 36.839-23.742 56.712-34.269z" opacity="1" data-original="#9bc9ff"></path><path fill="#1e81ce" d="m164.431 270.194-14.912-17.742c8.289-1.125 16.535-2.559 24.716-4.24zm99.085-27.051-19.037-14.873a858.654 858.654 0 0 0 24.128-8.919zm-46.757 14.243-17.829-14.968c7.847-2.073 15.607-4.344 23.281-6.741zm-.405 16.375c3.631 3.045 9.175 1.237 10.328-3.335l8.365-33.281 28.647 22.374c3.687 2.883 9.201.946 10.198-3.703l9.012-42.088a1784.985 1784.985 0 0 0 21.47-8.78 6.4 6.4 0 0 0-4.907-11.821c-48.548 20.165-105.19 42.172-163.111 48.01-5.19.526-7.496 6.649-4.25 10.481l-.011.009 29.117 34.637c3.034 3.603 8.818 2.804 10.748-1.519l15.656-35.116zm13.116-91.805c-1.057.19-5.048-3.122-6.423-10.291-.658-3.463-.496-6.911.453-9.454.645-1.728 1.479-2.492 1.774-2.492.334 0 1.289.394 2.459 1.681 1.818 2.014 3.252 5.155 3.905 8.62 1.376 7.166-1.089 11.734-2.168 11.936zm-30.378-8.976c-6.95 0-8.904-9.636-2.454-12.313 10.845-4.502 17.632-8.728 27.067-15.684 10.607-7.82 18.289-13.005 31.517-15.558a6.4 6.4 0 0 1 2.427 12.57c-8.582 1.666-14.28 4.652-21.475 9.746.356.341.707.691 1.046 1.066 11.767 12.99 9.736 38.87-5.339 41.722-11.77 2.227-21.513-11.439-21.993-25.857a126.505 126.505 0 0 1-8.354 3.813 6.318 6.318 0 0 1-2.442.495zm184.429 183.081c-11.552 15.248-17.141 36.815-27.375 46.729-11.321 10.968-31.771 12.552-47.83 4.582 3.872-7.337 6.828-16.025 8.861-26.087a34.649 34.649 0 0 0 10.117 1.886c28.365.954 38.095-24.154 57.57-34.467 2.524-1.34 5.15-2.5 7.868-3.482a130.584 130.584 0 0 0-9.211 10.839zm-96.465 58.394c-6.099 5.479-7.885 14.159-4.455 21.608l3.559 7.689c.744 1.614.011 3.611-1.602 4.352-1.623.741-3.613.008-4.352-1.605l-6.488-14.047c-2.373-5.128-7.529-8.098-13.143-7.55-9.163.879-21.011.879-30.163 0-5.625-.539-10.781 2.423-13.143 7.55l-6.488 14.047c-.739 1.614-2.74 2.355-4.352 1.605-1.613-.742-2.346-2.739-1.602-4.352l3.548-7.689c3.441-7.449 1.645-16.128-4.455-21.608-14.405-12.945-21.178-37.803-20.709-75.982.103-8.321.809-16.128 2.098-23.314a285.28 285.28 0 0 0 22.98 4.976 135.243 135.243 0 0 0-4.924 14.789 14.263 14.263 0 0 0 6.957 16.316l16.529 9.012c3.787 2.068.623 7.821-3.15 5.759l-9.055-4.94c-6.968-3.804-15.248 2.198-13.817 10 1.861 10.137 6.315 19.423 13.229 27.588 19.694 23.274 43.168 23.267 62.866 0 6.914-8.165 11.358-17.451 13.229-27.588 1.429-7.801-6.852-13.798-13.817-10l-9.066 4.94c-3.783 2.054-6.906-3.698-3.139-5.759l16.524-9.012a14.266 14.266 0 0 0 6.962-16.316c-1.384-5.088-3.112-10.337-5.156-15.353 8.051-1.976 14.992-4.444 22.494-8.073 1.726 8.142 2.691 17.315 2.81 26.976.48 38.177-6.293 63.035-20.709 75.981zm-14.323-84.422a108.072 108.072 0 0 0-3.128-8.005c-15.981 2.275-32.458 1.896-48.23.017-2.358 5.406-4.13 10.667-5.657 16.231-.2.725.086 1.366.744 1.724l16.519 9.012a15.962 15.962 0 0 1 7.712 9.583c4.036 13.755-10.631 25.469-23.114 18.654l-2.184-1.194c4.545 12.578 17.608 27.23 30.098 27.23 12.493 0 25.519-14.614 30.104-27.23l-2.189 1.194a15.935 15.935 0 0 1-12.231 1.295c-13.804-4.065-15.625-22.733-3.166-29.533L274.534 340c.653-.358.928-.999.733-1.724a133.28 133.28 0 0 0-2.534-8.243zM105 249.56c17.802 30.765 36.597 39.229 72.336 50.068 25.385 7.696 73.803 18.473 112.886 4.249 31.251-11.375 61.439-41.586 73.895-72.988 12.458-31.42 10.683-66.886-4.633-92.555-13.081-21.919-34.495-34.734-61.049-37.865-30.406-3.583-61.804-1.152-88.413 6.87-21.998 6.623-36.462 14.064-42.993 22.103-8.011 9.863-6.655 20.29-15.235 31.924-4.476 6.059-10.576 11.153-18.153 15.164l-8.165 3.406c-12.069 4.862-23.47 9.463-29.3 19.345-9.016 15.292-.603 33.997 8.824 50.279zM209.155 72.352l22.451 16.914c-10.313 1.722-19.698 3.982-29.279 7.057zm71.77-14.651 14.556 29.585a250.31 250.31 0 0 0-34.655-1.007zm63.847 46.345c-7.383-5.121-15.624-9.141-24.641-11.991l27.795-23.673zm35.513 50.246c-2.244-7.476-5.253-14.584-9.033-21.172l24.943 11.239zm22.898 53.462-21.043 7.784a128.17 128.17 0 0 0 2.945-30.184zm-48.445 63.405c6.153-7.561 11.536-15.625 15.898-23.921l6.24 30.066zm-33.911 31.147a152.42 152.42 0 0 0 16.799-13.15l1.197 25.482zm99.269 30.287a6.376 6.376 0 0 0-6.272-4.251c-12.76.486-24.516 3.535-34.946 9.046-21.63 11.43-29.48 33.73-51.158 32.992-2.961-.104-5.776-.786-8.516-2.048 1.778-15.51 2.098-35.668-.35-51.851l23.352 15.983c4.348 2.968 10.263-.301 10.004-5.581l-2.044-43.71 33.393 9.269c4.586 1.274 8.948-2.807 7.976-7.468l-11.417-55.04 35.863-13.27c4.103-1.518 5.503-6.633 2.761-10.027l-32.908-40.724 27.299-17.032c4.324-2.702 3.887-9.175-.761-11.267l-55.51-25.01 5.199-58.67c.5-5.679-6.192-9.127-10.533-5.435l-42.891 36.533-21-42.67c-2.15-4.371-8.195-4.809-10.975-.853l-30.195 42.925-37.066-27.923c-3.587-2.706-8.776-.951-10.004 3.364L187.5 101.637c-43.916 17.88-34.982 37.173-46.013 52.125-3.317 4.504-7.782 8.218-13.617 11.331-2.314 1.007-4.687 1.955-7.183 2.97-12.884 5.197-27.493 11.085-35.534 24.705-12.442 21.096-1.85 44.861 8.774 63.199 20.59 35.594 44.697 45.272 79.018 55.7-1.553 8.226-2.416 17.152-2.535 26.642-.523 42.086 7.647 70.113 24.959 85.668 1.958 1.759 2.486 4.327 1.386 6.716l-3.554 7.689c-3.71 8.056-.183 17.63 7.863 21.342 7.938 3.67 17.579.285 21.34-7.86l6.488-14.055c.076-.16.129-.179.302-.171 9.896.948 22.699.956 32.606 0 .167-.008.221.019.297.171l6.482 14.055c3.716 8.047 13.288 11.572 21.335 7.86 8.057-3.712 11.584-13.286 7.863-21.334l-3.548-7.698c-1.106-2.389-.572-4.957 1.386-6.716 1.985-1.782 3.84-3.746 5.593-5.863 20.019 10.614 47.559 9.649 63.847-6.135 12.79-12.394 17.552-33.515 28.675-48.189 6.639-8.766 14.782-16.821 24.198-23.946a6.399 6.399 0 0 0 2.168-7.25z" opacity="1" data-original="#1e81ce"></path></g></g></svg>