<svg xmlns="http://www.w3.org/2000/svg" version="1.1" xmlns:xlink="http://www.w3.org/1999/xlink" width="512" height="512" x="0" y="0" viewBox="0 0 551.13 551.13" style="enable-background:new 0 0 512 512" xml:space="preserve" class=""><g><path d="M275.565 0C123.61 0 0 123.608 0 275.565 0 427.52 123.61 551.13 275.565 551.13S551.13 427.52 551.13 275.565C551.13 123.608 427.52 0 275.565 0zM34.446 275.565c0-60.286 22.399-115.337 59.107-157.659l339.671 339.671c-42.321 36.708-97.372 59.107-157.659 59.107-132.949 0-241.12-108.17-241.119-241.119zm423.133 157.659L117.908 93.553c42.321-36.708 97.372-59.107 157.659-59.107 132.949 0 241.119 108.17 241.119 241.119 0 60.286-22.399 115.338-59.107 157.659z" fill="#000000" opacity="1" data-original="#000000"></path></g></svg>