<svg xmlns="http://www.w3.org/2000/svg" version="1.1" xmlns:xlink="http://www.w3.org/1999/xlink" width="512" height="512" x="0" y="0" viewBox="0 0 512 512" style="enable-background:new 0 0 512 512" xml:space="preserve" class=""><g><circle cx="256" cy="256" r="256" fill="#f55b4b" opacity="1" data-original="#f55b4b"></circle><path fill="#3e436d" d="M512 256a257.75 257.75 0 0 1-3 39.64 254.82 254.82 0 0 1-44 108.32c-1.69 2.37-3.4 4.71-5.16 7q-7.5 9.84-15.9 18.92a256.28 256.28 0 0 1-135.29 76.7q-10.2 2.13-20.69 3.44a259.26 259.26 0 0 1-63.8 0q-10.48-1.3-20.69-3.44a254.84 254.84 0 0 1-111-53.67q-4.82-4-9.41-8.21-9.08-8.32-17.33-17.49a255.8 255.8 0 0 1-7.2-334.08c2.17-2.64 4.41-5.23 6.68-7.78q8.22-9.18 17.28-17.54a255.52 255.52 0 0 1 121-62.41Q213.61 3.28 224.1 2a259.26 259.26 0 0 1 63.8 0q10.49 1.3 20.69 3.44a254.39 254.39 0 0 1 94.58 41.11q4.89 3.42 9.61 7.1 9.78 7.56 18.77 16.05a258.19 258.19 0 0 1 21.37 22.75 254.86 254.86 0 0 1 56 123.94A257.75 257.75 0 0 1 512 256z" opacity="1" data-original="#3e436d"></path><path fill="#343a5b" d="M287.9 509.07q1.73.27 3.45.51-1.73.24-3.45.45a259.26 259.26 0 0 1-63.8 0q-10.48-1.3-20.69-3.44a254.84 254.84 0 0 1-111-53.67q-4.82-4-9.41-8.21-9.08-8.32-17.33-17.49a255.8 255.8 0 0 1-7.2-334.08c2.17-2.64 4.41-5.23 6.68-7.78q8.22-9.18 17.28-17.54a255.52 255.52 0 0 1 121-62.41Q213.61 3.28 224.1 2a259.26 259.26 0 0 1 63.8 0q1.73.21 3.45.45-1.73.24-3.45.51-7 1-13.8 2.48a253.34 253.34 0 0 0-50 16Q213.5 26 203.41 31.59a254 254 0 0 0-24.68 15.47 256.72 256.72 0 0 0-25.6 20.76q-6.31 5.82-12.25 12.08-2.55 2.68-5 5.46c-2.27 2.55-4.51 5.14-6.68 7.78q-4.86 5.88-9.36 12-7.41 10.14-13.82 21-2.68 4.58-5.2 9.26a254.81 254.81 0 0 0-27.05 80.91 259.12 259.12 0 0 0 0 79.28 254.91 254.91 0 0 0 32.67 90.85q5.09 8.56 10.8 16.68c1 1.43 2 2.86 3.07 4.27q3.7 5.07 7.68 9.94 4.08 5 8.41 9.84 8.25 9.15 17.33 17.49 4.61 4.21 9.41 8.21a255.16 255.16 0 0 0 40.3 27.49q10.07 5.55 20.69 10.2a253.34 253.34 0 0 0 50 16q6.81 1.44 13.77 2.51z" opacity="1" data-original="#343a5b"></path><path fill="#ffffff" d="m452.92 92.42-96.26 96.26L329 216.36l-20.39 20.39-5.43 5.43-15.28 15.26-38.2 38.2-25.6 25.6-2.1 2.08-18.61 18.61-111 111q-4.82-4-9.41-8.21-9.08-8.32-17.33-17.49a255.37 255.37 0 0 1-19.16-24.05l79.85-79.85 77-77 4.11-4.1 16.58-16.59 9.23-9.23 22-22 5.67-5.68 26.89-26.89 20.69-20.69 94.58-94.58q4.89 3.42 9.61 7.1 9.78 7.56 18.77 16.05a258.19 258.19 0 0 1 21.45 22.7z" opacity="1" data-original="#ffffff"></path><path fill="#ffffff" d="M464.94 404c-1.69 2.37-3.4 4.71-5.16 7q-7.5 9.84-15.9 18.92a257.51 257.51 0 0 1-25 23.63l-110.29-110.3-19.93-19.93-.76-.76-26.9-26.92-5.66-5.64-31.24-31.24-16.58-16.58-4.11-4.11-21.71-21.71-27.7-27.68-95.52-95.54c2.17-2.64 4.41-5.23 6.68-7.78q8.22-9.18 17.28-17.54A256.72 256.72 0 0 1 108 47.06z" opacity="1" data-original="#ffffff"></path><g fill="#db1b1b"><path d="M198.31 329.41 83 444.71q-9.08-8.32-17.33-17.49l97.81-97.81zM431.55 69.67l-119 119-4 3.95-2.14 2.14h-34.78l6.09-6.09 10.18-10.17L412.78 53.62q9.78 7.56 18.77 16.05zM459.78 411q-7.5 9.84-15.9 18.92L343.4 329.41h34.82zM209.39 194.77h-34.82l-6.09-6.09L65.16 85.36q8.22-9.18 17.28-17.54L203.3 188.68l.11.11z" fill="#db1b1b" opacity="1" data-original="#db1b1b"></path></g><path fill="#ffffff" d="M509 216.36a253.73 253.73 0 0 0-5.9-27.68H308.59V5.41Q298.39 3.28 287.9 2a259.26 259.26 0 0 0-63.8 0q-10.48 1.3-20.69 3.44v183.24H9a253.73 253.73 0 0 0-5.9 27.68 259.12 259.12 0 0 0 0 79.28A253.73 253.73 0 0 0 9 323.32h194.41v183.27q10.2 2.13 20.69 3.44a259.26 259.26 0 0 0 63.8 0q10.49-1.3 20.69-3.44V323.32h194.46a253.73 253.73 0 0 0 5.9-27.68 259.12 259.12 0 0 0 0-79.28z" opacity="1" data-original="#ffffff"></path><path fill="#e0e0e0" d="M120.28 407.44q3.7 5.07 7.68 9.94l-35.54 35.54q-4.82-4-9.41-8.21-9.08-8.32-17.33-17.49a255.37 255.37 0 0 1-19.16-24.05l45.27-45.27a253.76 253.76 0 0 0 14.62 28.59q5.09 8.56 10.8 16.68c1.01 1.43 2.03 2.83 3.07 4.27zM140.88 79.9q-2.55 2.68-5 5.46c-2.27 2.55-4.51 5.14-6.68 7.78q-4.86 5.88-9.36 12-7.41 10.14-13.82 21-2.68 4.58-5.2 9.26L58.48 93.14c2.17-2.64 4.41-5.23 6.68-7.78q8.22-9.18 17.28-17.54A256.72 256.72 0 0 1 108 47.06zM73.74 216.36a259.12 259.12 0 0 0 0 79.28 253.73 253.73 0 0 0 5.9 27.68H9a253.73 253.73 0 0 1-5.9-27.68 259.12 259.12 0 0 1 0-79.28A253.73 253.73 0 0 1 9 188.68h70.64a253.73 253.73 0 0 0-5.9 27.68zM224.1 21.39q-10.6 4.61-20.69 10.2V5.41Q213.61 3.28 224.1 2a259.26 259.26 0 0 1 63.8 0q1.73.21 3.45.45-1.73.24-3.45.51-7 1-13.8 2.48a253.34 253.34 0 0 0-50 15.95z" opacity="1" data-original="#e0e0e0"></path><path fill="#db1b1b" d="M512 256a257.75 257.75 0 0 0-3-39.64H288V2a259.26 259.26 0 0 0-63.8 0v214.36H3.05a259.12 259.12 0 0 0 0 79.28H224.1V510a259.26 259.26 0 0 0 63.8 0V295.64H509a257.75 257.75 0 0 0 3-39.64z" opacity="1" data-original="#db1b1b"></path><path fill="#c11717" d="M120.28 407.44 83 444.71q-9.08-8.32-17.33-17.49l40.73-40.73q5.09 8.56 10.8 16.68c1.02 1.43 2.04 2.83 3.08 4.27zM119.81 105.19q-7.41 10.14-13.82 21L65.16 85.36q8.22-9.18 17.28-17.54zM73.74 216.36a259.12 259.12 0 0 0 0 79.28H3.05a259.12 259.12 0 0 1 0-79.28zM287.9 2v1q-7 1-13.8 2.48a253.34 253.34 0 0 0-50 16V2a259.26 259.26 0 0 1 63.8 0z" opacity="1" data-original="#c11717"></path><circle cx="474.36" cy="255.91" r="16.28" fill="#e23737" opacity="1" data-original="#e23737"></circle><circle cx="440.45" cy="255.91" r="11.53" fill="#e23737" opacity="1" data-original="#e23737"></circle></g></svg>