<svg xmlns="http://www.w3.org/2000/svg" version="1.1" xmlns:xlink="http://www.w3.org/1999/xlink" width="512" height="512" x="0" y="0" viewBox="0 0 24 24" style="enable-background:new 0 0 512 512" xml:space="preserve" class=""><g><path d="M24 19v1.5c0 1.93-1.57 3.5-3.5 3.5h-9.26c.48-.716.76-1.576.76-2.5V19h12ZM1.5 0A1.5 1.5 0 0 0 0 1.5V5h3V1.5A1.5 1.5 0 0 0 1.5 0Zm3.162 0C4.879.455 5 .964 5 1.5v19.857c0 1.308.941 2.499 2.242 2.63A2.5 2.5 0 0 0 10 21.5V17h10V4a4 4 0 0 0-4-4H4.662Z" fill="#000000" opacity="1" data-original="#000000"></path></g></svg>