<svg xmlns="http://www.w3.org/2000/svg" version="1.1" xmlns:xlink="http://www.w3.org/1999/xlink" width="512" height="512" x="0" y="0" viewBox="0 0 299.697 208.93" style="enable-background:new 0 0 512 512" xml:space="preserve" class=""><g><circle cx="82.679" cy="22.504" r="22.5" transform="rotate(-24 82.61 22.49)" fill="#000000" opacity="1" data-original="#000000"></circle><path d="m135.123 128.54-11.353 5.359 15.63 31.003a12.488 12.488 0 0 0 3.63 4.347l49.21 37.156a12.44 12.44 0 0 0 7.523 2.525 12.48 12.48 0 0 0 9.986-4.969c4.16-5.51 3.066-13.348-2.444-17.508l-46.89-35.403-14.644-29.044c-2.572 2.928-6.106 5.101-10.648 6.534z" fill="#000000" opacity="1" data-original="#000000"></path><path d="m294.636 172.63-42.34-59.665c-2.228-3.14-6.62-3.886-9.76-1.658l-23.046 16.355a6.921 6.921 0 0 0-2.048 2.298l-23.578-33.227a7.943 7.943 0 0 0 2.796-2.874 7.998 7.998 0 0 0-3.017-10.904l-62.073-35.17-7.707-4.366c-7.079-5.054-15.226-5.294-20.825-2.612-7.032 3.37-8.828 13.51-5.796 22.159l7.778-10.302a10.225 10.225 0 0 1 8.227-4.095c2.253 0 4.397.72 6.2 2.08a10.233 10.233 0 0 1 3.995 6.796 10.236 10.236 0 0 1-1.98 7.63l-15.045 19.927c2.897 7.55 5.54 15.647 6.893 23.646l-28.656 13.524a21.916 21.916 0 0 1 2.148 9.485v11.35c0 5.306-1.978 8.965-5.879 10.872-.546.267-1.13.481-1.728.673l35.85 32.774a12.453 12.453 0 0 0 8.43 3.273c3.388 0 6.764-1.368 9.23-4.065 4.658-5.096 4.303-13.002-.793-17.66l-29.839-27.278 32.212-15.204c7.483-2.32 14.485-7.325 14.344-20.756-1.192-13.752-3.203-23.805-7.087-33.811l3.077 1.743 41.137 23.308a7.956 7.956 0 0 0 3.936 1.04c.034 0 .067-.006.102-.006l44.434 62.619 23.508 33.127a9.784 9.784 0 0 1 6.179-2.194c3.806 0 7.107 2.178 8.74 5.35l18.63-13.22 3.915 5.56 4.497-3.166-4.449-6.319c1.037-2.214.896-4.91-.612-7.036z" fill="#000000" opacity="1" data-original="#000000"></path><path d="M263.915 194.462a6.833 6.833 0 1 0 0 13.666 6.833 6.833 0 0 0 0-13.666zM83.803 143.006v-11.348c0-10.477-8.573-19.05-19.05-19.05H59.95c-.344-1.392-1.182-2.682-2.39-3.826l-3.922.812c1.52.903 2.602 1.948 3.13 3.015H27.034c1.02-2.061 4.087-4.047 8.452-5.066a10.249 10.249 0 0 1-1.552-2.712c-5.38 1.436-9.224 4.302-10.082 7.778h-4.803C8.572 112.609 0 121.18 0 131.658v11.348c0 10.477 8.572 9.603 19.049 9.603h45.705c10.477 0 19.049.874 19.049-9.603zm-59.965-25.673h3v2.75h30.125v-2.75h3v2.75h2.272v2.333H21.568v-2.333h2.27v-2.75zm0 24.417V125h3v16.75zm33.125 0V125h3v16.75z" fill="#000000" opacity="1" data-original="#000000"></path><path d="M43.544 109.165c.537 0 1.083-.055 1.63-.168l44.753-9.266a8.003 8.003 0 0 0 4.763-3.014l24.935-33.027a8 8 0 1 0-12.77-9.64l-23.12 30.624-41.805 8.655a8 8 0 0 0 1.614 15.836zM155.446 35.42h76.712v2.265h-76.712zM171.427 49.011h76.712v2.265h-76.712zM185.811 42.215h110.073v2.265H185.811z" fill="#000000" opacity="1" data-original="#000000"></path></g></svg>