<svg xmlns="http://www.w3.org/2000/svg" version="1.1" xmlns:xlink="http://www.w3.org/1999/xlink" width="512" height="512" x="0" y="0" viewBox="0 0 32 32" style="enable-background:new 0 0 512 512" xml:space="preserve" class=""><g><path d="M18.582 1.057c-2.17-2.293-6.323-.592-6.229 2.58v1.395c-3.41 1.45-5.666 4.773-5.666 8.539v6.434a1.067 1.067 0 0 0 2.134 0v-6.434c-.152-5.7 6.848-9.323 11.348-5.778 1.11.843 2.401-.848 1.293-1.698-.556-.423-1.172-.753-1.81-1.034.055-1.363.036-3.041-1.07-4.004zm-4.094 2.58c.032-1.989 2.994-1.993 3.03 0v.743c-1-.17-2.029-.146-3.03 0zM29.577 2.42a1.067 1.067 0 0 0-1.51 0L4.759 25.728l-2.33 2.33c-.974.984.512 2.495 1.51 1.508l1.676-1.675h6.089c.113 2.282 1.99 4.108 4.3 4.108s4.186-1.826 4.3-4.108h6.19c.589 0 1.067-.478 1.067-1.068v-4.076c0-.59-.478-1.067-1.067-1.067a1.161 1.161 0 0 1-1.174-1.174c-.127-3.01.563-8.498-1.147-11.174l5.405-5.405a1.067 1.067 0 0 0 0-1.509zM16.003 29.865a2.19 2.19 0 0 1-2.177-1.974h4.354a2.19 2.19 0 0 1-2.177 1.974zm7.181-16.007v6.648c-.02 1.399.92 2.71 2.241 3.136v2.114H7.748l14.83-14.83a7.57 7.57 0 0 1 .606 2.932z" fill="#000000" opacity="1" data-original="#000000"></path></g></svg>