<svg xmlns="http://www.w3.org/2000/svg" version="1.1" xmlns:xlink="http://www.w3.org/1999/xlink" width="512" height="512" x="0" y="0" viewBox="0 0 512.009 512.009" style="enable-background:new 0 0 512 512" xml:space="preserve" class=""><g><path d="M79.893 81.322h59.374v59.337H79.893zM274.652 391.915h59.337v59.374h-59.337zM452.672 332.569h59.337v59.337h-59.337zM393.289 332.569h-59.3V273.26h-59.337v59.337h59.337v59.309h59.337v-59.309h59.319V273.26h-59.356zM393.289 451.243h59.355v59.355h-59.355z" fill="#000000" opacity="1" data-original="#000000" class=""></path><path d="M17.139 220.589h184.89c9.461 0 17.13-7.669 17.139-17.13V18.55c0-9.47-7.669-17.139-17.139-17.139H17.139C7.669 1.411 0 9.08 0 18.55v184.909c0 9.461 7.669 17.13 17.139 17.13zM34.269 35.68H184.89v150.64H34.269V35.68zM352.261 81.322h59.337v59.337h-59.337z" fill="#000000" opacity="1" data-original="#000000" class=""></path><path d="M289.47 220.589h184.928c9.461 0 17.13-7.669 17.139-17.13V18.55c0-9.47-7.669-17.139-17.139-17.139H289.47c-9.47 0-17.139 7.669-17.139 17.139v184.9c0 9.47 7.669 17.139 17.139 17.139zM306.6 35.68h150.659v150.64H306.6V35.68zM80.292 353.255h59.337v59.337H80.292z" fill="#000000" opacity="1" data-original="#000000" class=""></path><path d="M202.429 273.325H17.501c-9.47 0-17.139 7.669-17.139 17.139v184.909c0 9.47 7.669 17.139 17.139 17.139h184.928c9.461 0 17.13-7.678 17.139-17.139V290.464c0-9.47-7.669-17.139-17.139-17.139zM185.29 458.234H34.631V307.603H185.29v150.631z" fill="#000000" opacity="1" data-original="#000000" class=""></path></g></svg>